<svg width="24" height="25" viewBox="0 0 24 25" fill="none" xmlns="http://www.w3.org/2000/svg">
<path d="M13 5.999C12.8685 5.99847 12.7383 6.02398 12.6167 6.07404C12.4951 6.12411 12.3847 6.19775 12.2917 6.29071C12.1987 6.38368 12.1251 6.49413 12.075 6.61569C12.025 6.73726 11.9995 6.86753 12 6.999V9.558C7.5 10.056 4 13.867 4 18.499V19.499C6.245 16.076 9.25 15.579 12 15.51V17.999C11.9996 18.197 12.058 18.3906 12.1678 18.5553C12.2776 18.72 12.4338 18.8484 12.6167 18.9242C12.7996 18.9999 13.0009 19.0196 13.195 18.9808C13.3891 18.9419 13.5673 18.8463 13.707 18.706L20 12.499L13.707 6.291C13.6142 6.19814 13.504 6.12454 13.3826 6.07442C13.2613 6.02431 13.1313 5.99868 13 5.999Z" fill="#C9FC00"/>
<path d="M13 9.00001C12.8685 8.99948 12.7383 9.02498 12.6167 9.07505C12.4951 9.12512 12.3847 9.19876 12.2917 9.29172C12.1987 9.38469 12.1251 9.49514 12.075 9.6167C12.025 9.73826 11.9995 9.86854 12 10V12.559C7.5 13.057 4 16.868 4 21.5V22.5C6.245 19.077 9.25 18.58 12 18.511V21C11.9996 21.198 12.058 21.3916 12.1678 21.5563C12.2776 21.721 12.4338 21.8494 12.6167 21.9252C12.7996 22.0009 13.0009 22.0206 13.195 21.9818C13.3891 21.9429 13.5673 21.8473 13.707 21.707L20 15.5L13.707 9.29201C13.6142 9.19915 13.504 9.12554 13.3826 9.07543C13.2613 9.02532 13.1313 8.99969 13 9.00001Z" fill="#C9FC00" fill-opacity="0.3"/>
</svg>
