<svg width="100" height="100" viewBox="0 0 100 100" fill="none" xmlns="http://www.w3.org/2000/svg">
<path opacity="0.2" d="M32.5 10H65.925C66.9649 9.99955 67.9934 10.2153 68.9454 10.6337C69.8974 11.052 70.7521 11.6637 71.455 12.43L93.025 35.94C94.2948 37.3232 94.9995 39.1324 95 41.01V92.5C95 94.4891 94.2098 96.3968 92.8033 97.8033C91.3968 99.2098 89.4891 100 87.5 100H32.5C30.5109 100 28.6032 99.2098 27.1967 97.8033C25.7902 96.3968 25 94.4891 25 92.5V17.5C25 15.5109 25.7902 13.6032 27.1967 12.1967C28.6032 10.7902 30.5109 10 32.5 10Z" fill="white"/>
<path d="M32.5 62.5C31.837 62.5 31.2011 62.2366 30.7322 61.7678C30.2634 61.2989 30 60.663 30 60C30 59.337 30.2634 58.7011 30.7322 58.2322C31.2011 57.7634 31.837 57.5 32.5 57.5H67.5C68.163 57.5 68.7989 57.7634 69.2678 58.2322C69.7366 58.7011 70 59.337 70 60C70 60.663 69.7366 61.2989 69.2678 61.7678C68.7989 62.2366 68.163 62.5 67.5 62.5H32.5ZM32.5 75C31.837 75 31.2011 74.7366 30.7322 74.2678C30.2634 73.7989 30 73.163 30 72.5C30 71.837 30.2634 71.2011 30.7322 70.7322C31.2011 70.2634 31.837 70 32.5 70H67.5C68.163 70 68.7989 70.2634 69.2678 70.7322C69.7366 71.2011 70 71.837 70 72.5C70 73.163 69.7366 73.7989 69.2678 74.2678C68.7989 74.7366 68.163 75 67.5 75H32.5Z" fill="white"/>
<path fill-rule="evenodd" clip-rule="evenodd" d="M55.925 5H22.5C20.5109 5 18.6032 5.79018 17.1967 7.1967C15.7902 8.60322 15 10.5109 15 12.5V87.5C15 89.4891 15.7902 91.3968 17.1967 92.8033C18.6032 94.2098 20.5109 95 22.5 95H77.5C79.4891 95 81.3968 94.2098 82.8033 92.8033C84.2098 91.3968 85 89.4891 85 87.5V36.01C84.9995 34.1324 84.2948 32.3232 83.025 30.94L61.455 7.43C60.7521 6.66373 59.8974 6.052 58.9454 5.63367C57.9934 5.21534 56.9649 4.99955 55.925 5ZM20 12.5C20 11.837 20.2634 11.2011 20.7322 10.7322C21.2011 10.2634 21.837 10 22.5 10H55.925C56.2719 9.99962 56.6151 10.0714 56.9327 10.2109C57.2504 10.3503 57.5355 10.5544 57.77 10.81L79.34 34.32C79.7639 34.7808 79.9994 35.3839 80 36.01V87.5C80 88.163 79.7366 88.7989 79.2678 89.2678C78.7989 89.7366 78.163 90 77.5 90H22.5C21.837 90 21.2011 89.7366 20.7322 89.2678C20.2634 88.7989 20 88.163 20 87.5V12.5Z" fill="white"/>
<path d="M57.5 10.5V34H81" stroke="white" stroke-width="5" stroke-linecap="round" stroke-linejoin="round"/>
<path d="M40.67 30.665C41.384 30.6869 42.0951 30.5651 42.7612 30.307C43.4273 30.0488 44.0347 29.6595 44.5475 29.1622C45.0603 28.6649 45.468 28.0696 45.7464 27.4118C46.0248 26.7539 46.1683 26.0468 46.1683 25.3325C46.1683 24.6182 46.0248 23.9111 45.7464 23.2532C45.468 22.5954 45.0603 22.0001 44.5475 21.5028C44.0347 21.0055 43.4273 20.6162 42.7612 20.358C42.0951 20.0999 41.384 19.9781 40.67 20C39.284 20.0424 37.969 20.6229 37.0036 21.6183C36.0382 22.6137 35.4983 23.9458 35.4983 25.3325C35.4983 26.7192 36.0382 28.0513 37.0036 29.0467C37.969 30.0421 39.284 30.6226 40.67 30.665Z" fill="white"/>
<path fill-rule="evenodd" clip-rule="evenodd" d="M51.33 42.22C51.33 36.55 46.555 32.445 40.665 32.445C34.775 32.445 30 36.545 30 42.22V44.89C30.0013 45.3612 30.1894 45.8127 30.5231 46.1454C30.8568 46.4782 31.3088 46.665 31.78 46.665H49.555C50.0254 46.6637 50.4761 46.4763 50.8087 46.1437C51.1413 45.8111 51.3287 45.3604 51.33 44.89V42.22Z" fill="white"/>
</svg>
