<svg width="100" height="100" viewBox="0 0 100 100" fill="none" xmlns="http://www.w3.org/2000/svg">
<path d="M50 0V8.08081H91.9192V91.9192H50V100H100V0H50Z" fill="white"/>
<path d="M8.08081 91.9192V8.08081H50V0H0V100H50V91.9192H8.08081Z" fill="white" fill-opacity="0.7"/>
<path d="M29.1226 78.3946C32.4787 78.7954 36.2496 80.9695 39.4054 81.3533C42.5781 81.7539 43.5599 79.1927 43.5599 79.1927C43.5599 79.1927 47.1302 78.3945 50.8838 78.3026C54.641 78.1974 58.1975 79.084 58.1975 79.084C58.1975 79.084 58.8872 80.6636 60.1747 81.3533C61.4622 82.0564 64.2341 82.1515 66.0107 80.2798C67.7906 78.3946 72.5397 76.0198 75.2064 74.5354C77.89 73.0475 77.3975 70.7784 75.7127 70.0887C74.0278 69.3992 72.6486 68.3121 72.7539 66.2263C72.8456 64.1576 71.266 62.7784 71.266 62.7784C71.266 62.7784 72.6486 58.2265 71.3612 54.4558C70.0737 50.7022 65.8274 44.6657 62.563 40.1273C59.2985 35.5754 62.0703 30.3202 59.0981 23.6042C56.1256 16.8782 48.4179 17.2758 44.2634 20.1426C40.1088 23.0097 41.3826 30.1196 41.583 33.4929C41.7834 36.8491 41.6747 39.2507 41.2909 40.1137C40.907 40.9901 38.2268 44.1731 36.4468 46.8398C34.6702 49.52 33.3826 55.0537 32.0816 57.3366C30.8076 59.6059 31.6977 61.6746 31.6977 61.6746C31.6977 61.6746 30.8078 61.9802 30.1046 63.4683C29.4149 64.9392 28.0357 65.6422 25.5525 66.1214C23.0862 66.6275 23.0862 68.2174 23.6808 69.9974C24.2785 71.7739 23.6808 72.7693 22.9911 75.0386C22.3016 77.3075 25.7529 77.997 29.1226 78.3946ZM64.0098 68.0436C65.7729 68.8148 68.307 67.7412 69.0781 66.9701C69.846 66.2024 70.3894 65.061 70.3894 65.061C70.3894 65.061 71.1606 65.4449 71.0824 66.6643C71.0008 67.9008 71.6123 69.6638 72.7672 70.2754C73.9222 70.8834 75.6852 71.7325 74.7715 72.5818C73.8405 73.4311 68.6909 75.5032 67.1521 77.1202C65.6268 78.7269 63.6226 80.0416 62.403 79.6543C61.17 79.2705 60.0931 77.5857 60.6232 75.1194C61.17 72.6634 61.6321 69.9695 61.5539 68.4307C61.4725 66.8919 61.17 64.8198 61.5539 64.5139C61.9377 64.2115 62.5492 64.3576 62.5492 64.3576C62.5492 64.3576 62.2432 67.2762 64.0098 68.0436ZM52.5688 26.4713C54.2672 26.4713 55.6363 28.1562 55.6363 30.2283C55.6363 31.6992 54.9466 32.9731 53.9377 33.5847C53.683 33.4794 53.4179 33.3604 53.1258 33.238C53.7373 32.9358 54.1618 32.1647 54.1618 31.2746C54.1618 30.1095 53.4452 29.1515 52.5448 29.1515C51.6684 29.1515 50.9379 30.1093 50.9379 31.2746C50.9379 31.6994 51.0434 32.1238 51.2165 32.4568C50.6866 32.2426 50.2076 32.0594 49.8238 31.9133C49.6234 31.4071 49.5044 30.8364 49.5044 30.2285C49.5046 28.1564 50.87 26.4713 52.5688 26.4713ZM48.3632 32.9461C49.1989 33.0921 51.4951 34.0875 52.3446 34.3931C53.1939 34.6853 54.1347 35.2287 54.043 35.7723C53.9377 36.3327 53.4995 36.3327 52.3446 37.036C51.2032 37.7257 48.7098 39.2645 47.9115 39.3697C47.1165 39.475 46.6648 39.0265 45.8153 38.4796C44.966 37.9224 43.3731 36.6214 43.7737 35.9319C43.7737 35.9319 45.0204 34.9774 45.564 34.4883C46.1076 33.982 47.5139 32.7897 48.3632 32.9461ZM44.7012 27.0693C46.0395 27.0693 47.13 28.6624 47.13 30.6259C47.13 30.9826 47.0892 31.3154 47.0248 31.6483C46.6919 31.7535 46.3591 31.9269 46.0395 32.2055C45.8834 32.338 45.7371 32.4568 45.6048 32.5893C45.8153 32.1919 45.8969 31.6212 45.8018 31.0232C45.6183 29.9634 44.9016 29.1788 44.1983 29.284C43.4917 29.403 43.0704 30.3746 43.2403 31.4481C43.4272 32.5352 44.1302 33.3196 44.847 33.2008C44.8878 33.1873 44.9252 33.1737 44.966 33.16C44.623 33.4929 44.3036 33.7851 43.9707 34.0228C43.0026 33.5709 42.2858 32.219 42.2858 30.6259C42.286 28.6489 43.3593 27.0693 44.7012 27.0693ZM37.2448 52.7709C38.624 50.597 39.5139 45.8445 40.8931 44.2649C42.286 42.6887 43.3593 39.3291 42.8702 37.8447C42.8702 37.8447 45.8426 41.4012 47.9115 40.817C49.9836 40.219 54.641 36.7576 55.3304 37.3521C56.0201 37.9499 61.9513 50.9944 62.549 55.1489C63.147 59.3 62.1517 62.4729 62.1517 62.4729C62.1517 62.4729 59.8826 61.875 59.5902 63.2542C59.2981 64.6469 59.2981 69.6915 59.2981 69.6915C59.2981 69.6915 56.2307 73.9378 51.4816 74.6408C46.7325 75.3305 44.3545 74.8277 44.3545 74.8277L41.6878 71.7737C41.6878 71.7737 43.7601 71.4681 43.4678 69.3857C43.1757 67.317 37.1357 64.4497 36.0486 61.8748C34.962 59.2998 35.8486 54.9483 37.2448 52.7709ZM25.5014 68.3495C25.7391 67.3305 28.8167 67.3305 29.9989 66.6137C31.1812 65.897 31.4187 63.8384 32.3735 63.295C33.3143 62.7378 35.0537 64.715 35.7705 65.8289C36.4737 66.916 39.1676 71.6685 40.2682 72.8505C41.3824 74.0428 42.405 75.6224 42.0856 77.0424C41.7834 78.4622 40.1086 79.4984 40.1086 79.4984C38.6107 79.9604 34.4323 78.1566 32.5335 77.3616C30.6347 76.5634 25.804 76.3255 25.1824 75.6224C24.5438 74.9057 25.488 73.3261 25.7393 71.8279C25.9634 70.3129 25.2604 69.3719 25.5014 68.3495Z" fill="white"/>
</svg>
