<svg width="32" height="32" viewBox="0 0 32 32" fill="none" xmlns="http://www.w3.org/2000/svg">
<circle cx="16" cy="16" r="16" fill="#C9FC00"/>
<path d="M20.5439 9.14V18.01C20.5439 18.8167 20.4206 19.5467 20.1739 20.2C19.9272 20.8533 19.5639 21.41 19.0839 21.87C18.6106 22.33 18.0272 22.6833 17.3339 22.93C16.6472 23.1767 15.8606 23.3 14.9739 23.3C14.0806 23.3 13.3072 23.1867 12.6539 22.96C12.0072 22.7267 11.3839 22.4067 10.7839 22L12.0339 19.98C12.5072 20.3067 12.9506 20.5367 13.3639 20.67C13.7772 20.7967 14.2472 20.86 14.7739 20.86C15.4872 20.86 16.0806 20.6333 16.5539 20.18C17.0339 19.72 17.2739 19.01 17.2739 18.05V11.54H13.0139V9.14H20.5439Z" fill="#121212"/>
</svg>
