<svg width="24" height="24" viewBox="0 0 24 24" fill="none" xmlns="http://www.w3.org/2000/svg">
<path d="M20.25 3.75H3.75C3.35218 3.75 2.97064 3.90804 2.68934 4.18934C2.40804 4.47064 2.25 4.85218 2.25 5.25V18.75C2.25 19.1478 2.40804 19.5294 2.68934 19.8107C2.97064 20.092 3.35218 20.25 3.75 20.25H20.25C20.6478 20.25 21.0294 20.092 21.3107 19.8107C21.592 19.5294 21.75 19.1478 21.75 18.75V5.25C21.75 4.85218 21.592 4.47064 21.3107 4.18934C21.0294 3.90804 20.6478 3.75 20.25 3.75ZM8.7 13.65C8.85913 13.7693 8.96433 13.947 8.99246 14.1439C9.02059 14.3408 8.96935 14.5409 8.85 14.7C8.73065 14.8591 8.55298 14.9643 8.35607 14.9925C8.15915 15.0206 7.95913 14.9693 7.8 14.85L4.8 12.6C4.70685 12.5301 4.63125 12.4396 4.57918 12.3354C4.52711 12.2313 4.5 12.1164 4.5 12C4.5 11.8836 4.52711 11.7687 4.57918 11.6646C4.63125 11.5604 4.70685 11.4699 4.8 11.4L7.8 9.15C7.95913 9.03065 8.15915 8.97941 8.35607 9.00754C8.55298 9.03567 8.73065 9.14087 8.85 9.3C8.96935 9.45913 9.02059 9.65915 8.99246 9.85607C8.96433 10.053 8.85913 10.2307 8.7 10.35L6.49969 12L8.7 13.65ZM14.2209 6.95625L11.2209 17.4562C11.1954 17.5526 11.1508 17.6429 11.09 17.7219C11.0291 17.8009 10.953 17.8669 10.8663 17.9161C10.7796 17.9654 10.684 17.9968 10.585 18.0086C10.486 18.0205 10.3856 18.0124 10.2897 17.985C10.1939 17.9576 10.1044 17.9113 10.0267 17.8489C9.94888 17.7865 9.88433 17.7092 9.83678 17.6216C9.78923 17.5339 9.75964 17.4377 9.74973 17.3385C9.73982 17.2393 9.74979 17.1391 9.77906 17.0438L12.7791 6.54375C12.8367 6.356 12.9657 6.19836 13.1384 6.1047C13.311 6.01105 13.5135 5.98884 13.7023 6.04286C13.8911 6.09688 14.0512 6.22282 14.1482 6.39361C14.2452 6.5644 14.2713 6.76641 14.2209 6.95625ZM19.2 12.6L16.2 14.85C16.0409 14.9693 15.8408 15.0206 15.6439 14.9925C15.447 14.9643 15.2693 14.8591 15.15 14.7C15.0307 14.5409 14.9794 14.3408 15.0075 14.1439C15.0357 13.947 15.1409 13.7693 15.3 13.65L17.5003 12L15.3 10.35C15.2212 10.2909 15.1548 10.2169 15.1046 10.1321C15.0545 10.0474 15.0215 9.95357 15.0075 9.85607C14.9936 9.75856 14.999 9.65927 15.0235 9.56386C15.0479 9.46845 15.0909 9.37879 15.15 9.3C15.2091 9.22121 15.2831 9.15482 15.3679 9.10464C15.4526 9.05446 15.5464 9.02147 15.6439 9.00754C15.7414 8.99361 15.8407 8.99902 15.9361 9.02346C16.0315 9.04791 16.1212 9.09091 16.2 9.15L19.2 11.4C19.2931 11.4699 19.3687 11.5604 19.4208 11.6646C19.4729 11.7687 19.5 11.8836 19.5 12C19.5 12.1164 19.4729 12.2313 19.4208 12.3354C19.3687 12.4396 19.2931 12.5301 19.2 12.6Z" fill="white"/>
<path d="M22 5H5.5C5.10218 5 4.72064 5.15804 4.43934 5.43934C4.15804 5.72064 4 6.10218 4 6.5V20C4 20.3978 4.15804 20.7794 4.43934 21.0607C4.72064 21.342 5.10218 21.5 5.5 21.5H22C22.3978 21.5 22.7794 21.342 23.0607 21.0607C23.342 20.7794 23.5 20.3978 23.5 20V6.5C23.5 6.10218 23.342 5.72064 23.0607 5.43934C22.7794 5.15804 22.3978 5 22 5ZM10.45 14.9C10.6091 15.0193 10.7143 15.197 10.7425 15.3939C10.7706 15.5908 10.7193 15.7909 10.6 15.95C10.4807 16.1091 10.303 16.2143 10.1061 16.2425C9.90915 16.2706 9.70913 16.2193 9.55 16.1L6.55 13.85C6.45685 13.7801 6.38125 13.6896 6.32918 13.5854C6.27711 13.4813 6.25 13.3664 6.25 13.25C6.25 13.1336 6.27711 13.0187 6.32918 12.9146C6.38125 12.8104 6.45685 12.7199 6.55 12.65L9.55 10.4C9.70913 10.2807 9.90915 10.2294 10.1061 10.2575C10.303 10.2857 10.4807 10.3909 10.6 10.55C10.7193 10.7091 10.7706 10.9092 10.7425 11.1061C10.7143 11.303 10.6091 11.4807 10.45 11.6L8.24969 13.25L10.45 14.9ZM15.9709 8.20625L12.9709 18.7062C12.9454 18.8026 12.9008 18.8929 12.84 18.9719C12.7791 19.0509 12.703 19.1169 12.6163 19.1661C12.5296 19.2154 12.434 19.2468 12.335 19.2586C12.236 19.2705 12.1356 19.2624 12.0397 19.235C11.9439 19.2076 11.8544 19.1613 11.7767 19.0989C11.6989 19.0365 11.6343 18.9592 11.5868 18.8716C11.5392 18.7839 11.5096 18.6877 11.4997 18.5885C11.4898 18.4893 11.4998 18.3891 11.5291 18.2938L14.5291 7.79375C14.5867 7.606 14.7157 7.44836 14.8884 7.3547C15.061 7.26105 15.2635 7.23884 15.4523 7.29286C15.6411 7.34688 15.8012 7.47282 15.8982 7.64361C15.9952 7.8144 16.0213 8.01641 15.9709 8.20625ZM20.95 13.85L17.95 16.1C17.7909 16.2193 17.5908 16.2706 17.3939 16.2425C17.197 16.2143 17.0193 16.1091 16.9 15.95C16.7807 15.7909 16.7294 15.5908 16.7575 15.3939C16.7857 15.197 16.8909 15.0193 17.05 14.9L19.2503 13.25L17.05 11.6C16.9712 11.5409 16.9048 11.4669 16.8546 11.3821C16.8045 11.2974 16.7715 11.2036 16.7575 11.1061C16.7436 11.0086 16.749 10.9093 16.7735 10.8139C16.7979 10.7185 16.8409 10.6288 16.9 10.55C16.9591 10.4712 17.0331 10.4048 17.1179 10.3546C17.2026 10.3045 17.2964 10.2715 17.3939 10.2575C17.4914 10.2436 17.5907 10.249 17.6861 10.2735C17.7815 10.2979 17.8712 10.3409 17.95 10.4L20.95 12.65C21.0431 12.7199 21.1187 12.8104 21.1708 12.9146C21.2229 13.0187 21.25 13.1336 21.25 13.25C21.25 13.3664 21.2229 13.4813 21.1708 13.5854C21.1187 13.6896 21.0431 13.7801 20.95 13.85Z" fill="white" fill-opacity="0.4"/>
</svg>
