<svg width="24" height="24" viewBox="0 0 24 24" fill="none" xmlns="http://www.w3.org/2000/svg">
<g clip-path="url(#clip0_432_482)">
<path d="M12 2C17.523 2 22 6.477 22 12C22 17.523 17.523 22 12 22C6.477 22 2 17.523 2 12C2 6.477 6.477 2 12 2ZM12 6C11.7348 6 11.4804 6.10536 11.2929 6.29289C11.1054 6.48043 11 6.73478 11 7V12C11.0001 12.2652 11.1055 12.5195 11.293 12.707L14.293 15.707C14.4816 15.8892 14.7342 15.99 14.9964 15.9877C15.2586 15.9854 15.5094 15.8802 15.6948 15.6948C15.8802 15.5094 15.9854 15.2586 15.9877 14.9964C15.99 14.7342 15.8892 14.4816 15.707 14.293L13 11.586V7C13 6.73478 12.8946 6.48043 12.7071 6.29289C12.5196 6.10536 12.2652 6 12 6Z" fill="white"/>
<path d="M14 3C19.523 3 24 7.477 24 13C24 18.523 19.523 23 14 23C8.477 23 4 18.523 4 13C4 7.477 8.477 3 14 3ZM14 7C13.7348 7 13.4804 7.10536 13.2929 7.29289C13.1054 7.48043 13 7.73478 13 8V13C13.0001 13.2652 13.1055 13.5195 13.293 13.707L16.293 16.707C16.4816 16.8892 16.7342 16.99 16.9964 16.9877C17.2586 16.9854 17.5094 16.8802 17.6948 16.6948C17.8802 16.5094 17.9854 16.2586 17.9877 15.9964C17.99 15.7342 17.8892 15.4816 17.707 15.293L15 12.586V8C15 7.73478 14.8946 7.48043 14.7071 7.29289C14.5196 7.10536 14.2652 7 14 7Z" fill="white" fill-opacity="0.3"/>
</g>
<defs>
<clipPath id="clip0_432_482">
<rect width="24" height="24" fill="white"/>
</clipPath>
</defs>
</svg>
